<svg xmlns="http://www.w3.org/2000/svg" version="1.1" xmlns:xlink="http://www.w3.org/1999/xlink" xmlns:svgjs="http://svgjs.com/svgjs" width="1440" height="560" preserveAspectRatio="none" viewBox="0 0 1440 560"><g mask="url(&quot;#SvgjsMask1062&quot;)" fill="none"><rect width="1440" height="560" x="0" y="0" fill="url(#SvgjsLinearGradient1063)"></rect><path d="M 0,180 C 72,145.2 216,0.6 360,6 C 504,11.4 576,193 720,207 C 864,221 936,87.2 1080,76 C 1224,64.8 1368,136 1440,151L1440 560L0 560z" fill="#184a7e"></path><path d="M 0,440 C 96,427.6 288,365 480,378 C 672,391 768,516.8 960,505 C 1152,493.2 1344,356.2 1440,319L1440 560L0 560z" fill="#2264ab"></path></g><defs><mask id="SvgjsMask1062"><rect width="1440" height="560" fill="#ffffff"></rect></mask><linearGradient x1="0%" y1="50%" x2="100%" y2="50%" gradientUnits="userSpaceOnUse" id="SvgjsLinearGradient1063"><stop stop-color="#0e2a47" offset="0"></stop><stop stop-color="#00459e" offset="1"></stop></linearGradient></defs></svg>